<svg xmlns="http://www.w3.org/2000/svg" viewBox="0 0 65.35 92.71"><defs><style>.cls-1{fill:#bd866a;}.cls-2{fill:#fff;}.cls-3{fill:#3d2111;}.cls-4{fill:#dfac91;}.cls-5{fill:#e1e0e0;}.cls-6{fill:#ad7b4f;}.cls-7{fill:#cbcbc9;}.cls-8{fill:#edebeb;}.cls-9{fill:#e1a9a9;}.cls-10{fill:#c5797a;}</style></defs><title>Recurso 1</title><g id="Capa_2" data-name="Capa 2"><g id="Capa_1-2" data-name="Capa 1"><path class="cls-1" d="M13.34,53.58S0,49.64.45,47.21c0,0-.9-6.53,14.77,1.45"/><line class="cls-2" x1="3.42" y1="47.86" x2="0.45" y2="47.21"/><path class="cls-3" d="M3.71,47.64,1.1,47.07.73,47a.92.92,0,0,0-.64.17c-.15.12-.1.23.07.27L2.77,48l.37.08a.83.83,0,0,0,.64-.17c.15-.12.1-.23-.07-.27Z"/><line class="cls-2" x1="4.17" y1="46.41" x2="1.2" y2="45.76"/><path class="cls-3" d="M4.33,46.08l-2.61-.57-.37-.08a.56.56,0,0,0-.59.28c-.1.22.09.35.28.39l2.6.57.37.08a.6.6,0,0,0,.6-.28c.1-.22-.09-.35-.28-.39Z"/><path class="cls-2" d="M22.87,66.7s-5.23,14.09,8.39,19.81A24.11,24.11,0,0,1,22.87,66.7Z"/><path class="cls-1" d="M55.47,21.52s1.16-23.24-12.86-9.43"/><path class="cls-4" d="M53.85,25.6S55,1.18,41,15"/><path class="cls-1" d="M48.47,84.36s10.23,3.59,9.69,6c0,0,.54,6.58-14.68-2.24"/><line class="cls-4" x1="55.43" y1="89.19" x2="58.06" y2="90.71"/><line class="cls-4" x1="54.27" y1="90.34" x2="56.91" y2="91.86"/><path class="cls-1" d="M20.88,84.36s-10.22,3.59-9.68,6c0,0-.54,6.58,14.67-2.24"/><line class="cls-4" x1="13.82" y1="89.43" x2="11.18" y2="90.95"/><path class="cls-3" d="M13.54,89.32l-2.3,1.33-.33.19c-.11.06-.29.23-.1.32a.83.83,0,0,0,.65-.1l2.3-1.33.33-.19c.11-.07.28-.23.09-.32a.81.81,0,0,0-.64.1Z"/><line class="cls-4" x1="14.97" y1="90.58" x2="12.33" y2="92.1"/><path class="cls-3" d="M14.62,90.57l-2.3,1.33-.33.19s-.12.08-.11.14.12.06.16.06a1.28,1.28,0,0,0,.64-.17L15,90.78l.33-.19s.12-.08.11-.13-.13-.06-.16-.06a1.24,1.24,0,0,0-.65.17Z"/><path class="cls-1" d="M12.41,22.7S11.23-1.72,25.25,12.09"/><path class="cls-4" d="M13.82,25.6S12.63,1.18,26.65,15"/><path class="cls-4" d="M40.49,9.82a57.42,57.42,0,0,0,11.45,8.82s16.4,9.08,5.57,32.6c-.19.42-1.27,3.46,1.47,7.48,4.17,6.13,3.29,14.2,2.41,17.4-1.62,6-7.75,15.62-25,15.62H31.92c-17.2,0-24.31-11-24.31-17.22A37.05,37.05,0,0,1,11.21,59c1.93-3.89.43-8.56.26-9-9.41-22.8,5-31.39,5-31.39,7.31-4.39,15.5-12.87,15.5-12.87s5.8-8.2,5.37-3.76c0,0-2,6,1,4.29,0,0,3.68-3.35,2,.1,0,0-1,2.22,0,1.75C40.27,8.15,43.77,6.77,40.49,9.82Z"/><path class="cls-1" d="M38.12,9.83a44.79,44.79,0,0,0,13,9.79c-1.4-.77,14.63,8.93,5.08,30.58a8.11,8.11,0,0,0,.55,8.26c3.7,5.91,3.81,12.89,3,15.94C58.29,80.09,53,91.73,37.27,91.73H31.92c-15.72,0-21.29-13-21.3-18.86a36.45,36.45,0,0,1,3.3-14.78c1.76-3.71.39-8.16.23-8.57-8.6-21.73,4.53-29.91,4.53-29.91C25.36,15.44,32.84,7.36,32.84,7.36s1.78-3.29,1.4.94c0,0,.08,1.69,3.58.65C37.82,9,41.13,6.92,38.12,9.83Z"/><path class="cls-5" d="M34.66,81.1A42.79,42.79,0,0,0,39,80.21c14.51-6,4-24,4-24a17.71,17.71,0,0,1-.91-5.65,6.87,6.87,0,0,1,4.75-6.26c12.77-4.32,3.66-11.91,3.66-11.91-11.83-8.41-12.3-14.18-12.3-14.18-.94-7.32,2.26-8.35,2.26-8.35S44,6.91,41,7.37c0,0-2.14,1.85-.32-1.55,0,0,.89-2.83-1.72-1,0,0-2.13,2.63-1.33-1.56,0,0,1.48-6.14-2.46-1.5L30.72,7a51.21,51.21,0,0,1-.47,11.2s-.47,5.77-12.31,14.18c0,0-9.1,7.59,3.66,11.91a6.9,6.9,0,0,1,4.76,6.26,17.71,17.71,0,0,1-.91,5.65s-10.51,18,4,24c0,0,1.07.89,5.42.89"/><path class="cls-3" d="M20.6,26,18.12,24.9l-.36-.16a.72.72,0,0,0-.64.08c-.12.08-.28.27-.08.36l2.48,1.13.36.16a.72.72,0,0,0,.64-.08c.12-.08.28-.27.08-.36Z"/><path class="cls-3" d="M19.83,27.4l-2.67.6-.37.09c-.11,0-.45.14-.41.3s.42.07.5.05l2.66-.6.38-.09c.11,0,.45-.14.41-.3s-.42-.07-.5-.05Z"/><path class="cls-3" d="M47,27.16l2.48,1.13.36.16a.57.57,0,0,0,.29,0,1.1,1.1,0,0,0,.35-.11c.11-.05.28-.18.1-.26L48.07,27l-.35-.16a.71.71,0,0,0-.29,0,1.42,1.42,0,0,0-.35.11c-.11.06-.29.18-.1.26Z"/><path class="cls-3" d="M47.75,25.79l2.66-.61.38-.09c.09,0,.45-.11.42-.25s-.44,0-.49,0l-2.66.6-.38.09c-.09,0-.45.12-.42.26s.43,0,.49,0Z"/><path class="cls-6" d="M40.49,9.82a60.4,60.4,0,0,0,12.25,9.34s13.62,8.57,4.11,30.9a8.38,8.38,0,0,0,.53,8.24c3.55,5.89,2.87,12.75,2.9,15.88C60.35,81.1,55.82,91.74,37,91.74c0,0,13.79-7.38,15.87-20.47,1.81-11.39,2.59-30.38.59-38.21C49.21,16.2,37.4,13.6,39.28,10.83,39.28,10.83,40.05,9.91,40.49,9.82Z"/><path class="cls-7" d="M34.89,80.1c1.86-.26,4-.8,4-.8C52,73.87,42.46,57.55,42.46,57.55c-.64-2.08,3.32,20.37-12.28,21.75,0,0,1,.8,4.9.8"/><path class="cls-8" d="M28.45,49.18c-.78,2.76.8-3.29-4.82-5.25C10.91,39.5,20,32,20,32c4.49-4.12,8.86-8,8.86-8S20.42,34.91,24.58,38.9C24.58,38.9,30.05,43.53,28.45,49.18Z"/><ellipse class="cls-3" cx="25.62" cy="22.22" rx="1.47" ry="2.17"/><circle class="cls-2" cx="25.77" cy="21.02" r="0.5"/><ellipse class="cls-3" cx="43.11" cy="22.22" rx="1.47" ry="2.17"/><circle class="cls-2" cx="43.47" cy="21.02" r="0.5"/><path class="cls-3" d="M32.87,25.75a1.79,1.79,0,0,0,.83.43,3.52,3.52,0,0,0,2.4-.36c.18-.09.48-.36.28-.58a.71.71,0,0,0-.79-.07l-.29.13-.06,0c-.05,0,0,0,0,0a.47.47,0,0,1-.14,0l-.23.07h-.07l.09,0-.13,0-.19,0h-.08l-.15,0c-.06,0-.12-.05,0,0l-.07,0-.24-.08c-.07,0,.11.06,0,0l-.06,0-.07,0-.11-.07c-.08-.07.09.08,0,0a.69.69,0,0,0-.79-.07c-.17.08-.5.37-.29.58Z"/><path class="cls-3" d="M29.06,27.84a2.31,2.31,0,0,0,1.4,1.1c1.61.5,3.39-.36,4.71-1.22l-1,.17c1.76,1.17,5,2,6.2-.3.11-.21-.41-.16-.48-.15-.22,0-.57.12-.68.34a1.18,1.18,0,0,1-1,.77,3.88,3.88,0,0,1-1.35-.28,8,8,0,0,1-1.61-.79c-.26-.18-.77,0-1,.17-.93.6-2.09,1.24-3.19.67a2,2,0,0,1-.84-.79c-.16-.32-1.29.09-1.17.31Z"/><path class="cls-3" d="M35.27,27.46V25.6a.2.2,0,0,0-.12-.21.65.65,0,0,0-.39,0,1,1,0,0,0-.44.15c-.08.05-.22.14-.22.25V27.6a.21.21,0,0,0,.12.22.74.74,0,0,0,.39,0,1.15,1.15,0,0,0,.44-.15c.08-.05.22-.15.22-.25Z"/><path class="cls-9" d="M38.32,28.83c-3.14,11.92-7.27.12-7.27.12s2.73-.32,3.41-1.33Z"/><path class="cls-3" d="M38.1,28.77a11.55,11.55,0,0,1-1.86,4.44,1.47,1.47,0,0,1-1.74.61,4.11,4.11,0,0,1-1.58-1.57,14.59,14.59,0,0,1-1.15-2.13c-.18-.41-.35-.81-.5-1.23l-.22.29a12.1,12.1,0,0,0,1.59-.32,3.59,3.59,0,0,0,2-1.13l-.26.11L38.26,29c.27.09.39-.34.12-.43L34.52,27.4a.23.23,0,0,0-.25.11,3.43,3.43,0,0,1-1.9,1c-.41.1-1,.21-1.32.26-.13,0-.27.13-.21.28a15.3,15.3,0,0,0,1.68,3.45,4.66,4.66,0,0,0,1.73,1.74,1.78,1.78,0,0,0,2.06-.41,5.55,5.55,0,0,0,1.13-1.7,20.11,20.11,0,0,0,1.09-3.2A.22.22,0,0,0,38.1,28.77Z"/><path class="cls-10" d="M32.47,31.34s2.7-1.75,4.84-.2c0,0-1.11,3-2.36,2.7a1.3,1.3,0,0,1-.42-.1A3.93,3.93,0,0,1,32.47,31.34Z"/><path class="cls-5" d="M34.8,33.82l-.17-.89.71-.1.18.92S35.1,34,34.8,33.82Z"/><path class="cls-5" d="M30.82,8.07S30.16.49,32.37,1.25c0,0,1.07-.25.92,5.18"/><line class="cls-4" x1="57.66" y1="90.54" x2="55.28" y2="88.65"/><path class="cls-3" d="M57.66,90.25l-2.08-1.66-.3-.24c-.1-.08-.32-.18-.32,0a.81.81,0,0,0,.32.56l2.08,1.66.3.24c.1.08.32.18.33,0a.86.86,0,0,0-.33-.56Z"/><line class="cls-4" x1="57.01" y1="92.04" x2="54.63" y2="90.14"/><path class="cls-3" d="M56.89,91.71l-2.08-1.66-.3-.24s-.12-.08-.16,0,0,.14,0,.17a1.2,1.2,0,0,0,.4.54l2.08,1.66.3.24s.11.08.16,0,0-.14,0-.17a1.26,1.26,0,0,0-.4-.54Z"/><path class="cls-1" d="M62.49,49.7c-12.51,6.08-12.16-.24-12.16-.24C50,47,60.39,44.12,60.39,44.12s3-.94,4,.66c0,0,2.2,2.95-.25,4.08"/><line class="cls-2" x1="53.41" y1="48.86" x2="50.43" y2="49.47"/><path class="cls-3" d="M53.48,48.63l-2.6.54-.38.08c-.15,0-.47.1-.52.29s.29.17.38.15L53,49.15l.37-.07c.16,0,.48-.1.53-.29s-.29-.18-.39-.16Z"/><line class="cls-2" x1="54.15" y1="50.31" x2="51.16" y2="50.93"/><path class="cls-3" d="M54.08,50.08l-2.61.54-.37.08c-.13,0-.44.17-.39.35s.39.14.52.11l2.61-.54.37-.07c.13,0,.44-.17.39-.36s-.39-.13-.52-.11Z"/></g></g></svg>