<svg xmlns="http://www.w3.org/2000/svg" viewBox="0 0 134.7 175.63"><defs><style>.cls-1{fill:#ca5a1c;}.cls-2{fill:#fff;}.cls-3{fill:#bd866a;}.cls-4{fill:#dfac91;}.cls-5{fill:#ad7b4f;}.cls-6{fill:#e1e0e0;}.cls-7{fill:#3d2111;}.cls-8{fill:#c46743;}.cls-9{fill:#994c34;}.cls-10{opacity:0.19;}.cls-11{fill:#ff0303;}.cls-12{fill:#fbf8f3;}</style></defs><title>Recurso 2</title><g id="Capa_2" data-name="Capa 2"><g id="Capa_1-2" data-name="Capa 1"><ellipse class="cls-1" cx="67.35" cy="171.24" rx="67.35" ry="4.39"/><path class="cls-2" d="M30.79,145.18s-6.35,12.78,6,19.54A22.87,22.87,0,0,1,30.79,145.18Z"/><path class="cls-3" d="M66.09,105.78S69.51,84,54.89,95.59"/><path class="cls-4" d="M64.15,109.48s3.56-23-11.06-11.31"/><path class="cls-3" d="M25.32,102.59s1.32-23.18,13.18-8.73"/><path class="cls-4" d="M26.35,105.47s1.32-23.18,13.18-8.74"/><path class="cls-4" d="M53.11,93.23A54.31,54.31,0,0,0,63,102.71s14.58,10.22,2,31.34c-.23.38-1.55,3.14.63,7.21,3.32,6.2,1.69,13.74.54,16.67-2.13,5.47-8.88,14-25.12,12.25l-4.27-.46C20.59,168,15,156.88,15.6,151a35.1,35.1,0,0,1,5-14.27c2.21-3.49,1.26-8.05,1.14-8.47-6.61-22.47,7.82-29.14,7.82-29.14,7.34-3.41,15.91-10.6,15.91-10.6s6.3-7.17,5.45-3c0,0-2.51,5.42.47,4.15,0,0,3.81-2.8,1.91.29,0,0-1.16,2-.18,1.65C53.07,91.63,56.52,90.68,53.11,93.23Z"/><path class="cls-3" d="M50.88,93a42.4,42.4,0,0,0,11.3,10.54c-1.24-.86,12.93,9.9,1.74,29.38a7.73,7.73,0,0,0-.31,7.86c2.9,6,2.31,12.55,1.26,15.35-2,5.22-8.15,15.68-23,14.11l-5.05-.53C22,168.15,18,155.35,18.61,149.79a34.64,34.64,0,0,1,4.59-13.62c2-3.33,1.18-7.67,1.07-8.07-5.95-21.38,7.27-27.79,7.27-27.79,6.72-3.28,14.6-10.16,14.6-10.16s2-2.93,1.22,1c0,0-.09,1.6,3.32,1C50.68,92.15,54,90.56,50.88,93Z"/><path class="cls-5" d="M53.11,93.23a57.3,57.3,0,0,0,10.63,10s12,9.45.8,29.59a8,8,0,0,0-.33,7.83C67,146.61,65.65,153,65.36,156c-.62,6.53-6,16.12-23.69,14.25,0,0,13.76-5.59,17-17.74,2.85-10.58,5.48-28.43,4.38-36-2.37-16.35-13.26-20-11.21-22.41C51.87,94.07,52.69,93.28,53.11,93.23Z"/><path class="cls-6" d="M44.16,90.62s.13-7.23,2.15-6.29c0,0,1-.13.34,5"/><path class="cls-3" d="M63.1,132.18c12.05-5.4,11.53.59,11.53.59.29,2.33-9.71,4.77-9.71,4.77s-2.89.8-3.82-.74c0,0-2-2.87.35-3.87"/><line class="cls-2" x1="71.68" y1="133.26" x2="74.53" y2="132.76"/><path class="cls-7" d="M71.61,133.46,74.1,133l.36-.06c.15,0,.45-.08.5-.26s-.27-.17-.36-.16l-2.49.44-.35.06c-.15,0-.46.08-.51.26s.27.17.36.15Z"/><line class="cls-2" x1="71.03" y1="131.85" x2="73.88" y2="131.36"/><path class="cls-7" d="M71.08,132.07l2.5-.43.35-.06c.13,0,.43-.15.38-.33s-.36-.14-.48-.12l-2.5.44-.35.06c-.13,0-.43.15-.38.32s.36.14.48.12Z"/><path class="cls-2" d="M99.81,143.83s6.69,13.46-6.26,20.58A24.1,24.1,0,0,0,99.81,143.83Z"/><path class="cls-8" d="M75.08,92.47s-28.57-4.14-13.65,13"/><path class="cls-4" d="M75.08,94.06s-24.26-3-11.56,12"/><path class="cls-8" d="M92.26,90.49s23.48-6.82,13.3,10"/><path class="cls-4" d="M89.76,92.53s23.48-6.82,13.3,10"/><path class="cls-4" d="M76.3,89.12a57.1,57.1,0,0,1-10.46,10s-15.35,10.76-2.11,33c.24.4,1.63,3.31-.67,7.59-3.5,6.54-1.77,14.47-.57,17.56C64.74,163,71.85,172,89,170.16l4.5-.48c17.1-1.81,23-13.52,22.36-19.67a37.15,37.15,0,0,0-5.21-15c-2.33-3.67-1.33-8.47-1.2-8.92,6.95-23.66-8.24-30.69-8.24-30.69C93.43,91.77,84.4,84.2,84.4,84.2S77.77,76.65,78.66,81c0,0,2.64,5.7-.49,4.37,0,0-4-2.94-2,.31,0,0,1.22,2.1.19,1.74C76.35,87.44,72.71,86.43,76.3,89.12Z"/><path class="cls-8" d="M78.65,88.89A44.64,44.64,0,0,1,66.75,100c1.31-.91-13.61,10.43-1.83,31a8.11,8.11,0,0,1,.32,8.27c-3,6.27-2.43,13.22-1.32,16.17,2.08,5.5,8.58,16.51,24.21,14.86l5.32-.56c15.63-1.65,19.81-15.13,19.19-21a36.6,36.6,0,0,0-4.83-14.35c-2.14-3.5-1.25-8.07-1.13-8.5C112.94,103.33,99,96.57,99,96.57c-7.08-3.45-15.37-10.7-15.37-10.7S81.53,82.79,82.36,87c0,0,.1,1.69-3.5,1C78.86,88,75.36,86.31,78.65,88.89Z"/><path class="cls-9" d="M76.3,89.12A60.39,60.39,0,0,1,65.11,99.7s-12.65,10-.84,31.17a8.38,8.38,0,0,1,.34,8.25c-2.92,6.23-1.51,13-1.21,16.1.66,6.88,6.28,17,25,15,0,0-14.49-5.88-17.94-18.67-3-11.14-5.77-30-4.62-37.94,2.5-17.22,14-21,11.81-23.6C77.61,90,76.75,89.17,76.3,89.12Z"/><path class="cls-4" d="M85.73,86.37s-.14-7.61-2.26-6.62c0,0-1.09-.14-.36,5.24"/><path class="cls-8" d="M63.84,130.18c-13.82,1.6-10.12,6.74-10.12,6.74,1,2.26,11.35-.91,11.35-.91s3.05-.83,3.06-2.73c0,0,.27-3.68-2.39-3.31"/><line class="cls-2" x1="56.65" y1="135.77" x2="53.81" y2="136.86"/><path class="cls-7" d="M56.83,135.92l-2.49,1L54,137c-.14.06-.45.18-.59,0s.15-.3.24-.33l2.49-1,.35-.14c.15-.06.46-.17.6,0s-.15.3-.24.34Z"/><line class="cls-2" x1="56.48" y1="134.15" x2="53.64" y2="135.23"/><path class="cls-7" d="M56.55,134.38l-2.48,1-.36.13c-.13,0-.46.1-.52-.09s.25-.32.38-.37l2.49-.95.35-.13c.13,0,.46-.1.52.09s-.25.32-.38.37Z"/><g class="cls-10"><path class="cls-2" d="M65,136a35.62,35.62,0,0,0,6.14-3.62l.5,4.05,2.64-2.36a2.75,2.75,0,0,1,1-.67c2.11-.66,3.39,3.21,5.55,2.74,1.35-.29,1.57-2,1.62-3.23a2.23,2.23,0,0,1,.7-1.84c.94-.68,2.3.11,3,1s1.21,2,2.34,2.41a28.06,28.06,0,0,1,2.27-4.64l3.75,3.76a1.73,1.73,0,0,0,1,.58,1.63,1.63,0,0,0,1.18-.6,31.53,31.53,0,0,0,2.44-2.6l3.09,2.24c.55.4,1.47.75,1.84.19.23-.35,0-.84.16-1.23a1.09,1.09,0,0,1,1.45-.39,2.87,2.87,0,0,1,1.13,1.16l2.17,3.28a14,14,0,0,1,2.29,4.62,4.67,4.67,0,0,1-1.46,4.68c-1.42,1.09-3.92.89-4.75-.62l-1.19,4.12a10,10,0,0,1-3.08-3.21l-3,3.57c-.27.32-.66.68-1.08.56s-.46-.4-.58-.68l-1.34-3.13-4,4.23a8.77,8.77,0,0,1-2.54-4.09,6.86,6.86,0,0,1-1.4,3.09,2.77,2.77,0,0,1-3.25.7c-1.2-.71-1.31-2.44-2.52-3.11l-3.65,3.41a1.48,1.48,0,0,1-1.1.54,1.5,1.5,0,0,1-.84-.59l-1.87-2.2a49.33,49.33,0,0,0-6,4.14c-1.14-.2-1.6-1.46-1.93-2.49s-1.09-2.26-2.24-2.13c-.39.05-.79.25-1.15.1s-.46-.83-.36-1.32l1.93-9.59"/></g><path class="cls-11" d="M39.46.32a.78.78,0,0,0-.15.59.86.86,0,0,0,.31.52l.45.41.37.39.38.46c.22.27.43.56.64.85L42.8,5.37a.79.79,0,0,0,1.09.12A.83.83,0,0,0,44.18,5,.86.86,0,0,0,44,4.39c-.5-.72-1-1.44-1.52-2.15-.25-.34-.53-.66-.8-1A12.91,12.91,0,0,0,40.57.16.74.74,0,0,0,40,0a.77.77,0,0,0-.52.31Z"/><path class="cls-11" d="M33.35,8.35a.44.44,0,0,0,.09.34.46.46,0,0,0,.3.17L34.5,9c.29.08.57.16.85.26s.67.26,1,.41c.68.3,1.35.63,2,1a.48.48,0,0,0,.63-.27A.5.5,0,0,0,39,10a.55.55,0,0,0-.27-.25c-.74-.37-1.49-.73-2.27-1l-.61-.23-.57-.19A14.55,14.55,0,0,0,33.85,8h-.12a.45.45,0,0,0-.38.39Z"/><path class="cls-11" d="M33.46,19.37a.75.75,0,0,0,.64.82c.32,0,.64.06,1,.07h1.68l.93.07c.57.05,1.14.12,1.71.18a.83.83,0,1,0,.2-1.64c-.79-.05-1.57-.11-2.36-.15-.23,0-.47,0-.71,0l-.53,0-.87,0q-.42,0-.84-.06a.6.6,0,0,0-.19,0,.75.75,0,0,0-.63.64Z"/><path class="cls-11" d="M78.89,16h0c0,.1,0,.2-.07.3C78.84,16.18,78.87,16.08,78.89,16Z"/><path class="cls-11" d="M78.86,5.45a6.25,6.25,0,0,0-.8-1.59,3.58,3.58,0,0,0-.68-.77,2.06,2.06,0,0,0-.67-.51h0a6.36,6.36,0,0,0-.58-.3A4.53,4.53,0,0,0,74.9,2a5.26,5.26,0,0,0-1.19,0L73.5,2a7.55,7.55,0,0,0-1.14.27,10.66,10.66,0,0,0-1.55.57,15.88,15.88,0,0,0-1.69,1A10.44,10.44,0,0,0,67.81,4.9c-.46.44-.89.91-1.31,1.38a9.65,9.65,0,0,0-1,1.25,17,17,0,0,0-1,1.66,16.41,16.41,0,0,0-.71,1.67c-.19.51-.33,1-.47,1.57A21.44,21.44,0,0,0,62.85,16q-.16,1.76-.24,3.51a.28.28,0,0,1,0,.09c0,.08-.05.17-.07.26-.14.51-.27,1-.39,1.55l-.42-.79a34.3,34.3,0,0,0-3.57-5.55c-.71-.84-1.45-1.65-2.24-2.42-.43-.42-.85-.85-1.31-1.24a13.35,13.35,0,0,0-1.42-1.05,12.88,12.88,0,0,0-1.54-.86,13.19,13.19,0,0,0-1.5-.63,8.28,8.28,0,0,0-1-.25,6.78,6.78,0,0,0-1.56-.06,3,3,0,0,0-.42,0A8.48,8.48,0,0,0,46,8.87,4.24,4.24,0,0,0,45,9.41a6,6,0,0,0-1,.92,5.17,5.17,0,0,0-.63,1A4.24,4.24,0,0,0,43,12.52a4.75,4.75,0,0,0,0,1.13c0,.16,0,.31,0,.46a11.68,11.68,0,0,0,.3,1.67A19.33,19.33,0,0,0,44.47,19a35.62,35.62,0,0,0,3.37,5.91,28.18,28.18,0,0,0,2,2.5c.75.83,1.54,1.62,2.33,2.41s1.56,1.5,2.32,2.27S56,33.6,56.72,34.37s1.46,1.56,2.19,2.34l.42.62c.32.47.69.9,1.05,1.34s.74.87,1.12,1.29a18,18,0,0,0,2.74,2.49c.21.14.42.28.65.41a3.31,3.31,0,0,0,1.21.5,1.91,1.91,0,0,0,1.82-.76,3.07,3.07,0,0,0,.24-.48,1.11,1.11,0,0,1,.09-.19c.06-.12.13-.25.18-.37a5.54,5.54,0,0,0,.18-.67c.14-.46.33-.91.51-1.35L69.78,38l1.38-3.28c.87-2.07,1.83-4.12,2.78-6.15s1.93-4.08,2.78-6.17A49.27,49.27,0,0,0,78.89,16a20.23,20.23,0,0,0,.64-3.28,17.53,17.53,0,0,0,.09-1.78c0-.63,0-1.25-.06-1.88A15.82,15.82,0,0,0,78.86,5.45Z"/><path class="cls-12" d="M46,13.22a.54.54,0,1,0,.75.08.54.54,0,0,0-.75-.08Z"/><path class="cls-12" d="M46.53,16.21a.38.38,0,0,0-.06.54.38.38,0,1,0,.06-.54Z"/><path class="cls-12" d="M47.71,19.26a.26.26,0,1,0,.33.4.26.26,0,0,0-.33-.4Z"/><path class="cls-12" d="M49.49,21.48a.29.29,0,0,0-.05.41.29.29,0,0,0,.45-.37.29.29,0,0,0-.4,0Z"/><path class="cls-11" d="M66.05,49.44l1.16,1.77c.41.62.94,1.06.23,1.54A13.74,13.74,0,0,1,64.1,54a10.76,10.76,0,0,0-5.16,3,.76.76,0,0,0,.15,1.18l5.07,2.25a13.31,13.31,0,0,1,1.94.93c.56.36.92.73.71,1.4s-.51.64-1,.93c-.83.56-1.67,1.5-1.28,2.58S66.9,68,67.92,68.55l-.16-1.18c-.8.91-2.09,1.93-2.48,3.11a2.32,2.32,0,0,0,0,1.33c.12.41.66,1.17.47,1.58-.39.87.9,1.64,1.3.76A2.49,2.49,0,0,0,67,72c-.32-.81-.15-1.18.39-1.88s1-1.13,1.47-1.68a.75.75,0,0,0-.15-1.17A9.88,9.88,0,0,1,66.28,66c-.66-.73.72-1.21,1.2-1.59a2.33,2.33,0,0,0,.72-3c-.64-1.28-2.06-1.78-3.28-2.32l-5.07-2.26L60,58.05c1.8-2.19,4.71-2.58,7.21-3.57.82-.33,2.15-.73,2.3-1.77A2.47,2.47,0,0,0,68.89,51c-.51-.79-1-1.57-1.55-2.36s-1.83,0-1.29.76Z"/></g></g></svg>