<svg xmlns="http://www.w3.org/2000/svg" viewBox="0 0 65.47 93.14"><defs><style>.cls-1,.cls-5{fill:none;}.cls-1{stroke:#1d1d1b;stroke-miterlimit:10;stroke-width:0.25px;}.cls-2{fill:#fff;}.cls-3{fill:#3d2111;}.cls-4{fill:#dfac91;}.cls-6{fill:#cbcbc9;}.cls-7{fill:#e1a9a9;}.cls-8{fill:#c5797a;}.cls-9{fill:#e1e0e0;}</style></defs><title>Recurso 4</title><g id="Capa_2" data-name="Capa 2"><g id="Capa_1-2" data-name="Capa 1"><path class="cls-1" d="M13.34,53.89S0,50,.45,47.52c0,0-.9-6.54,14.77,1.44"/><line class="cls-2" x1="3.42" y1="48.17" x2="0.45" y2="47.52"/><path class="cls-3" d="M3.71,48,1.1,47.38.73,47.3a.83.83,0,0,0-.64.17c-.15.12-.1.23.07.27l2.61.57.37.08a.92.92,0,0,0,.64-.17c.15-.12.1-.23-.07-.27Z"/><line class="cls-2" x1="4.17" y1="46.72" x2="1.2" y2="46.07"/><path class="cls-3" d="M4.33,46.38l-2.61-.57-.37-.08A.58.58,0,0,0,.76,46c-.1.22.09.35.28.39l2.6.57.37.09a.6.6,0,0,0,.6-.29c.1-.22-.09-.35-.28-.39Z"/><path class="cls-2" d="M22.87,67s-5.23,14.08,8.39,19.8A24.1,24.1,0,0,1,22.87,67Z"/><path class="cls-1" d="M55.47,21.83S56.63-1.41,42.61,12.4"/><path class="cls-1" d="M48.47,84.67s10.23,3.58,9.69,6c0,0,.54,6.57-14.68-2.24"/><line class="cls-4" x1="55.43" y1="89.49" x2="58.06" y2="91.02"/><line class="cls-4" x1="54.27" y1="90.65" x2="56.91" y2="92.17"/><path class="cls-1" d="M20.88,84.67s-10.22,3.58-9.68,6c0,0-.54,6.57,14.67-2.24"/><line class="cls-4" x1="13.82" y1="89.73" x2="11.18" y2="91.26"/><path class="cls-3" d="M13.54,89.62,11.24,91l-.33.19c-.11.06-.29.23-.1.31a.87.87,0,0,0,.65-.09L13.76,90l.33-.19c.11-.06.28-.23.09-.31a.85.85,0,0,0-.64.09Z"/><line class="cls-4" x1="14.97" y1="90.89" x2="12.33" y2="92.41"/><path class="cls-3" d="M14.62,90.88l-2.3,1.33L12,92.4s-.12.08-.11.13.12.06.16.06a1.18,1.18,0,0,0,.64-.17L15,91.09l.33-.19s.12-.08.11-.13-.13-.06-.16-.07a1.35,1.35,0,0,0-.65.18Z"/><path class="cls-1" d="M12.41,23S11.23-1.41,25.25,12.4"/><path class="cls-1" d="M40.49,10.12A57.21,57.21,0,0,0,51.94,19s16.4,9.08,5.57,32.6C57.32,52,56.24,55,59,59c4.17,6.13,3.29,14.2,2.41,17.4-1.62,6-7.75,15.61-25,15.61H31.92C14.72,92,7.61,81,7.61,74.83a37.05,37.05,0,0,1,3.6-15.5c1.93-3.9.43-8.57.26-9-9.41-22.8,5-31.38,5-31.38,7.31-4.39,15.5-12.87,15.5-12.87s6.46-9.18,6-4.74c0,0-1.33,6.16.69,4.13,0,0,3.51-3,1.63,1.24,0,0-.9,2,.3,1.3C40.57,8,44.49,6.45,40.49,10.12Z"/><path class="cls-5" d="M38.12,10.14a44.79,44.79,0,0,0,13,9.79c-1.4-.77,14.63,8.93,5.08,30.58a8.11,8.11,0,0,0,.55,8.26c3.7,5.91,3.81,12.89,3,15.94C58.29,80.39,53,92,37.27,92H31.92c-15.72,0-21.29-13-21.3-18.86a36.44,36.44,0,0,1,3.3-14.77c1.76-3.71.39-8.16.23-8.57-8.6-21.73,4.53-29.91,4.53-29.91C25.36,15.75,32.84,7.67,32.84,7.67s1.78-3.29,1.4.94c0,0,.08,1.69,3.58.64C37.82,9.25,41.13,7.23,38.12,10.14Z"/><path class="cls-1" d="M34.66,81.41c2.05-.29,4.36-.89,4.36-.89,14.51-6,4-24,4-24a17.67,17.67,0,0,1-.91-5.65,6.88,6.88,0,0,1,4.75-6.26c12.77-4.32,3.66-11.9,3.66-11.9-11.83-8.41-12.3-14.18-12.3-14.18-.94-7.33,2.26-8.36,2.26-8.36S44,7.22,41,7.68c0,0-2.14,1.85-.32-1.55,0,0,.89-2.83-1.72-1,0,0-2.13,2.62-1.33-1.56,0,0,1.48-6.14-2.46-1.5L30.72,7.28a51.2,51.2,0,0,1-.47,11.2s-.47,5.77-12.31,14.18c0,0-9.1,7.58,3.66,11.9a6.91,6.91,0,0,1,4.76,6.26,17.67,17.67,0,0,1-.91,5.65s-10.51,18,4,24c0,0,1.07.89,5.42.89"/><path class="cls-3" d="M20.6,26.33l-2.48-1.12-.36-.16a.72.72,0,0,0-.64.08c-.12.07-.28.27-.08.36l2.48,1.13.36.16a.73.73,0,0,0,.64-.09c.12-.07.28-.27.08-.36Z"/><path class="cls-3" d="M19.83,27.7l-2.67.61-.37.09c-.11,0-.45.13-.41.29s.42.08.5.06l2.66-.61.38-.08c.11,0,.45-.14.41-.3s-.42-.08-.5-.06Z"/><path class="cls-3" d="M47,27.47l2.48,1.13.36.16a.71.71,0,0,0,.29,0,1.42,1.42,0,0,0,.35-.11c.11-.06.28-.18.1-.26l-2.49-1.13-.35-.16a.71.71,0,0,0-.29,0,1.1,1.1,0,0,0-.35.11c-.11.05-.29.18-.1.26Z"/><path class="cls-3" d="M47.75,26.09l2.66-.6.38-.09c.09,0,.45-.12.42-.25s-.44,0-.49,0l-2.66.61-.38.09c-.09,0-.45.12-.42.25s.43,0,.49,0Z"/><path class="cls-6" d="M34.89,80.41a40.05,40.05,0,0,0,4-.81C52,74.17,42.46,57.86,42.46,57.86c-.64-2.08,3.32,20.37-12.28,21.74,0,0,1,.81,4.9.81"/><ellipse class="cls-3" cx="25.62" cy="22.53" rx="1.47" ry="2.17"/><circle class="cls-2" cx="25.77" cy="21.33" r="0.5"/><ellipse class="cls-3" cx="43.11" cy="22.53" rx="1.47" ry="2.17"/><circle class="cls-2" cx="43.47" cy="21.33" r="0.5"/><path class="cls-3" d="M32.87,26.05a1.72,1.72,0,0,0,.83.44,3.58,3.58,0,0,0,2.4-.36c.18-.09.48-.36.28-.58a.68.68,0,0,0-.79-.07l-.29.13-.06,0c-.05,0,0,0,0,0a.47.47,0,0,1-.14,0l-.23.06-.07,0,.09,0-.13,0h-.19c-.14,0,.06,0,0,0h-.1l-.15,0c-.06,0-.12-.05,0,0l-.07,0-.24-.08,0,0-.06,0-.07,0-.11-.08c-.08-.06.09.08,0,0a.69.69,0,0,0-.79-.07c-.17.08-.5.36-.29.57Z"/><path class="cls-3" d="M29.06,28.15a2.38,2.38,0,0,0,1.4,1.1c1.61.49,3.39-.36,4.71-1.22l-1,.17c1.76,1.16,5,2,6.2-.31.11-.2-.41-.15-.48-.14-.22,0-.57.12-.68.34-.22.4-.5.76-1,.76a3.66,3.66,0,0,1-1.35-.28,7.08,7.08,0,0,1-1.61-.79c-.26-.18-.77,0-1,.17-.93.61-2.09,1.24-3.19.68a2,2,0,0,1-.84-.8c-.16-.31-1.29.09-1.17.32Z"/><path class="cls-3" d="M35.27,27.76V25.91a.19.19,0,0,0-.12-.21.74.74,0,0,0-.39-.05,1.15,1.15,0,0,0-.44.15c-.08.05-.22.15-.22.25v1.86a.2.2,0,0,0,.12.21.74.74,0,0,0,.39.05,1.17,1.17,0,0,0,.44-.16c.08-.05.22-.14.22-.25Z"/><path class="cls-7" d="M38.32,29.13c-3.14,11.93-7.27.13-7.27.13s2.73-.33,3.41-1.33Z"/><path class="cls-3" d="M38.1,29.07a11.49,11.49,0,0,1-1.86,4.44,1.45,1.45,0,0,1-1.74.61,4,4,0,0,1-1.58-1.56,14.2,14.2,0,0,1-1.15-2.14c-.18-.4-.35-.81-.5-1.22l-.22.28a10.64,10.64,0,0,0,1.59-.31,3.65,3.65,0,0,0,2-1.13l-.26.1,3.86,1.21c.27.09.39-.35.12-.43l-3.86-1.21a.22.22,0,0,0-.25.1,3.3,3.3,0,0,1-1.9,1,10.22,10.22,0,0,1-1.32.26c-.13,0-.27.13-.21.29a15.3,15.3,0,0,0,1.68,3.45,4.71,4.71,0,0,0,1.73,1.73,1.77,1.77,0,0,0,2.06-.4,5.6,5.6,0,0,0,1.13-1.71,19.78,19.78,0,0,0,1.09-3.2A.22.22,0,0,0,38.1,29.07Z"/><path class="cls-8" d="M32.47,31.65s2.7-1.76,4.84-.2c0,0-1.11,3-2.36,2.7a1.77,1.77,0,0,1-.42-.1A4,4,0,0,1,32.47,31.65Z"/><path class="cls-9" d="M34.8,34.13l-.17-.89.71-.11.18.93S35.1,34.34,34.8,34.13Z"/><line class="cls-4" x1="57.66" y1="90.85" x2="55.28" y2="88.95"/><path class="cls-3" d="M57.66,90.55l-2.08-1.66-.3-.23c-.1-.08-.32-.18-.32,0a.81.81,0,0,0,.32.56l2.08,1.66.3.24c.1.08.32.18.33,0a.86.86,0,0,0-.33-.57Z"/><line class="cls-4" x1="57.01" y1="92.35" x2="54.63" y2="90.45"/><path class="cls-3" d="M56.89,92l-2.08-1.66-.3-.24s-.12-.08-.16-.05,0,.14,0,.17a1.26,1.26,0,0,0,.4.54l2.08,1.66.3.23s.11.09.16,0,0-.13,0-.17a1.23,1.23,0,0,0-.4-.53Z"/><path class="cls-1" d="M62.49,50c-12.51,6.08-12.16-.24-12.16-.24-.38-2.44,10.06-5.34,10.06-5.34s3-.94,4,.66c0,0,2.2,2.95-.25,4.07"/><line class="cls-2" x1="53.41" y1="49.16" x2="50.43" y2="49.78"/><path class="cls-3" d="M53.48,48.94l-2.6.54-.38.08c-.15,0-.47.09-.52.28s.29.18.38.16L53,49.46l.37-.08c.16,0,.48-.09.53-.28s-.29-.18-.39-.16Z"/><line class="cls-2" x1="54.15" y1="50.62" x2="51.16" y2="51.24"/><path class="cls-3" d="M54.08,50.39l-2.61.54L51.1,51c-.13,0-.44.17-.39.36s.39.13.52.11l2.61-.54.37-.08c.13,0,.44-.17.39-.35s-.39-.14-.52-.11Z"/></g></g></svg>