<svg xmlns="http://www.w3.org/2000/svg" xmlns:xlink="http://www.w3.org/1999/xlink" viewBox="0 0 90.79 97.87"><defs><style>.cls-1{fill:none;}.cls-2{fill:#ca5a1c;}.cls-3{fill:#bd866a;}.cls-4{fill:#fff;}.cls-5{fill:#3d2111;}.cls-6{fill:#dfac91;}.cls-7{fill:#e1e0e0;}.cls-8{fill:#ad7b4f;}.cls-9{fill:#cbcbc9;}.cls-10{fill:#edebeb;}.cls-11{fill:#e1a9a9;}.cls-12{fill:#c5797a;}.cls-13{clip-path:url(#clip-path);}.cls-14{fill:#e26139;}.cls-15{fill:#e16138;}.cls-16{fill:#e06137;}.cls-17{fill:#df6036;}.cls-18{fill:#df6035;}.cls-19{fill:#de6034;}.cls-20{fill:#dd6033;}.cls-21{fill:#dc5f32;}.cls-22{fill:#db5f31;}.cls-23{fill:#da5f30;}.cls-24{fill:#d95f2f;}.cls-25{fill:#d95e2e;}.cls-26{fill:#d85e2d;}.cls-27{fill:#d75e2c;}.cls-28{fill:#d65e2b;}.cls-29{fill:#d55d29;}.cls-30{fill:#d45d28;}.cls-31{fill:#d35d27;}.cls-32{fill:#d25d26;}.cls-33{fill:#d25c25;}.cls-34{fill:#d15c24;}.cls-35{fill:#d05c23;}.cls-36{fill:#cf5c22;}.cls-37{fill:#ce5b21;}.cls-38{fill:#cd5b20;}.cls-39{fill:#cc5b1f;}.cls-40{fill:#cc5b1e;}.cls-41{fill:#cb5a1d;}.cls-42{fill:#c95a1b;}</style><clipPath id="clip-path"><path class="cls-1" d="M64.36,38.92c-3.12-.1-4.14.4-7.94.77a7.31,7.31,0,0,0,2.21,3.43A48.69,48.69,0,0,1,63.55,43c6.82.13,9,1.41,9.33,1.88-.07.55-1.63,2.59-7.85,5.39l-.47.21a108.66,108.66,0,0,1-21,6.3,107.14,107.14,0,0,1-22.26,2.39,43.19,43.19,0,0,1-4.89-.14A9.73,9.73,0,0,1,17.23,61a9.73,9.73,0,0,0-.77-1.89l-1-.13c-3.39.31-5.12.54-7.11.53.56,2.79,3.32,3.12,9.2,3.67.93.09,1.92.15,3,.19a108.33,108.33,0,0,0,23.89-2.46c3.85-.79,7.57-1.71,11-2.72a91.58,91.58,0,0,0,10.8-3.87l1.13-.5c7.08-3.29,10.21-6.46,9.55-9.69S72.17,39.17,64.36,38.92Z"/></clipPath></defs><title>Recurso 1</title><g id="Capa_2" data-name="Capa 2"><g id="Capa_1-2" data-name="Capa 1"><ellipse class="cls-2" cx="45.39" cy="93.48" rx="45.39" ry="4.39"/><path class="cls-3" d="M53.43,34.64c8.87-10.71,11.16-4.81,11.16-4.81,1.36,2.06-6.94,9-6.94,9s-2.36,2.1-4,1.07c0,0-3.23-1.78-1.47-3.81"/><line class="cls-4" x1="62.04" y1="31.66" x2="64.5" y2="29.87"/><path class="cls-5" d="M62.07,31.89l2.15-1.57.31-.22c.12-.1.39-.29.35-.48s-.33,0-.41,0L62.32,31.2l-.31.23c-.13.09-.39.28-.36.47s.34.05.42,0Z"/><line class="cls-4" x1="60.77" y1="30.63" x2="63.23" y2="28.84"/><path class="cls-5" d="M60.92,30.82l2.15-1.57.31-.23c.11-.08.33-.33.21-.48s-.41,0-.51.11l-2.16,1.57-.3.23c-.12.08-.34.33-.22.48s.41,0,.52-.11Z"/><path class="cls-3" d="M16.91,58.76s-13.74,1.9-14.37-.49c0,0-3.51-5.58,14.05-4.77"/><line class="cls-4" x1="5.52" y1="57.64" x2="2.54" y2="58.27"/><path class="cls-5" d="M5.68,57.32l-2.6.55L2.71,58a.89.89,0,0,0-.52.43c-.08.17,0,.25.18.21L5,58,5.35,58a.85.85,0,0,0,.51-.42c.09-.18,0-.26-.18-.22Z"/><line class="cls-4" x1="5.6" y1="56.01" x2="2.62" y2="56.64"/><path class="cls-5" d="M5.6,55.64,3,56.19l-.37.08a.6.6,0,0,0-.43.5c0,.24.23.28.42.24l2.61-.55.37-.08a.57.57,0,0,0,.42-.5c0-.24-.23-.28-.42-.24Z"/><path class="cls-4" d="M31,66.79s1,15,15.81,14.58A24.11,24.11,0,0,1,31,66.79Z"/><path class="cls-3" d="M42.08,12.19S33.55-9.47,26.47,8.89"/><path class="cls-6" d="M42.28,16.57s-9-22.74-16.07-4.38"/><path class="cls-3" d="M61.61,72.32s10.79-.95,11.29,1.46c0,0,3.21,5.77-14.29,4"/><line class="cls-6" x1="69.93" y1="73.85" x2="72.96" y2="74.15"/><line class="cls-6" x1="69.36" y1="75.38" x2="72.39" y2="75.68"/><path class="cls-3" d="M36.47,83.69s-7.83,7.48-6.35,9.45c0,0,2.22,6.22,12.45-8.09"/><line class="cls-6" x1="32.12" y1="91.22" x2="30.35" y2="93.7"/><path class="cls-5" d="M31.83,91.24,30.28,93.4l-.23.31c-.07.1-.16.33.05.32a.81.81,0,0,0,.55-.35l1.55-2.16.22-.31c.07-.1.16-.33-.05-.32a.79.79,0,0,0-.54.35Z"/><line class="cls-6" x1="33.65" y1="91.8" x2="31.88" y2="94.27"/><path class="cls-5" d="M33.33,91.93,31.78,94.1l-.22.31s-.08.12,0,.16.14,0,.17,0a1.26,1.26,0,0,0,.52-.42L33.75,92l.22-.31s.08-.13,0-.17-.13,0-.17,0a1.23,1.23,0,0,0-.51.42Z"/><path class="cls-3" d="M3.34,31s-11.15-21.76,7.31-15"/><path class="cls-6" d="M5.81,33.08s-11.15-21.77,7.32-15"/><path class="cls-6" d="M23.6,7.7A57.28,57.28,0,0,0,37.67,11s18.69,1.52,18.52,27.41c0,.46.27,3.67,4.42,6.21,6.32,3.86,8.85,11.58,9.37,14.85,1,6.11-.63,17.43-16.29,24.52l-4.12,1.86C33.9,93,22.88,85.84,20.32,80.2a37.11,37.11,0,0,1-3.1-15.6c.15-4.35-3.15-8-3.48-8.3-18-16.9-8.43-30.64-8.43-30.64,4.85-7,8.82-18.11,8.82-18.11S16-2.32,17.47,1.9c0,0,.6,6.26,2.63,3.53,0,0,2-4.58,1.89-.76,0,0,0,2.44.72,1.6C22.71,6.27,25.34,3.56,23.6,7.7Z"/><path class="cls-3" d="M21.45,8.68a44.68,44.68,0,0,0,15.89,3.56c-1.59-.12,17,2.1,17.23,25.77a8.13,8.13,0,0,0,3.91,7.3c5.8,3.85,8.79,10.17,9.32,13.27,1,5.8,1,18.59-13.36,25.07l-4.87,2.21c-14.32,6.48-24.75-3-27.18-8.4A36.56,36.56,0,0,1,19.3,62.64c.07-4.11-3-7.6-3.32-7.9C-.82,38.49,7.77,25.62,7.77,25.62c4.36-6.56,7.85-17,7.85-17s.27-3.73,1.66.29c0,0,.77,1.5,3.53-.89C20.81,8,23,4.79,21.45,8.68Z"/><path class="cls-7" d="M47.68,75a42.63,42.63,0,0,0,3.61-2.6C62,61,45,48.88,45,48.88a17.75,17.75,0,0,1-3.15-4.77,6.9,6.9,0,0,1,1.74-7.67C53.46,27.24,42,24.08,42,24.08c-14.25-2.77-17-7.84-17-7.84C21.11,10,23.6,7.7,23.6,7.7s2-4.11-.52-2.45c0,0-1.18,2.57-.92-1.29,0,0-.36-2.94-2-.22,0,0-.86,3.27-1.85-.88,0,0-1.18-6.2-2.86-.35L13.53,9.13a50.66,50.66,0,0,1,4.18,10.4s2,5.45-5.36,18c0,0-5.17,10.67,8.24,9.34a6.9,6.9,0,0,1,6.92,3.74A18.08,18.08,0,0,1,29,56.13S26.87,76.9,42.57,76.38c0,0,1.34.37,5.3-1.42"/><path class="cls-5" d="M12.17,30.66H9.05a.76.76,0,0,0-.56.34c-.08.12-.14.36.08.36h3.12a.71.71,0,0,0,.55-.35c.08-.11.15-.36-.07-.36Z"/><path class="cls-5" d="M12,32.23,9.85,33.88l-.31.24c-.09.06-.35.3-.25.44s.41-.11.48-.16L12,32.75l.31-.24c.09-.07.35-.3.25-.44s-.41.11-.48.16Z"/><path class="cls-5" d="M36.66,20.83h3.12a.61.61,0,0,0,.27-.12,1.07,1.07,0,0,0,.27-.25c.08-.09.18-.28,0-.28H37.19a.61.61,0,0,0-.27.12,1.25,1.25,0,0,0-.27.24c-.08.1-.19.29,0,.29Z"/><path class="cls-5" d="M36.8,19.25,39,17.6l.31-.23c.07-.06.35-.29.27-.41s-.41.16-.45.19L36.93,18.8l-.31.24c-.07.05-.35.29-.27.41s.4-.16.45-.2Z"/><path class="cls-8" d="M23.6,7.7a60.16,60.16,0,0,0,15,3.46s16,2.18,16.49,26.46A8.37,8.37,0,0,0,59,44.9c5.66,3.9,7.87,10.44,9.19,13.28C71.09,64.45,71.34,76,54.23,83.75c0,0,9.53-12.4,6-25.19C57.21,47.44,50.09,29.81,45,23.5,34.18,9.92,22.34,12.41,22.92,9.12,22.92,9.12,23.24,8,23.6,7.7Z"/><path class="cls-9" d="M47.48,74a39.21,39.21,0,0,0,3.26-2.35c9.72-10.36-5.67-21.31-5.67-21.31-1.44-1.63,11.43,17.19-2.22,24.88,0,0,1.22.33,4.8-1.29"/><path class="cls-10" d="M28.87,48.52c.42,2.84-.64-3.33-6.56-2.79-13.42,1.2-8.25-9.34-8.25-9.34,2.4-5.6,4.79-10.9,4.79-10.9S15.66,38.83,21.1,40.75C21.1,40.75,28,42.72,28.87,48.52Z"/><ellipse class="cls-5" cx="15.17" cy="25.13" rx="1.47" ry="2.17" transform="translate(-9.01 8.49) rotate(-24.35)"/><circle class="cls-4" cx="14.82" cy="23.97" r="0.5"/><ellipse class="cls-5" cx="31.11" cy="17.92" rx="1.47" ry="2.17" transform="translate(-4.62 14.42) rotate(-24.35)"/><circle class="cls-4" cx="30.93" cy="16.68" r="0.5"/><path class="cls-5" d="M23.23,25.35a1.73,1.73,0,0,0,.93.06,3.6,3.6,0,0,0,2-1.32c.13-.16.29-.53,0-.65a.69.69,0,0,0-.75.26l-.21.25-.05,0s0,0,0,0-.08.08-.1.1l-.19.16-.06,0,.07-.06-.11.08-.16.08c-.13.07.05,0,0,0l-.09,0-.15.05c-.06,0-.14,0,0,0h-.07l-.26,0h-.09l-.13,0c-.1,0,.11,0,.05,0a.71.71,0,0,0-.75.27c-.11.14-.3.54,0,.64Z"/><path class="cls-5" d="M20.61,28.83a2.33,2.33,0,0,0,1.73.42C24,29,25.29,27.53,26.13,26.2l-.84.57c2.08.34,5.36-.19,5.52-2.83,0-.23-.44,0-.5.06s-.46.35-.48.59a1.18,1.18,0,0,1-.58,1.11,4.08,4.08,0,0,1-1.34.3,7.67,7.67,0,0,1-1.79-.06c-.32-.05-.7.33-.85.57-.59.93-1.39,2-2.62,1.92a1.93,1.93,0,0,1-1.09-.37c-.28-.22-1.14.61-.95.77Z"/><path class="cls-5" d="M26.12,25.92l-.67-1.48-.09-.21a.21.21,0,0,0-.2-.15.81.81,0,0,0-.37.12,1.22,1.22,0,0,0-.35.33c-.05.07-.14.22-.09.32L25,26.32l.1.21a.2.2,0,0,0,.2.15.71.71,0,0,0,.37-.12,1,1,0,0,0,.34-.32c.05-.08.14-.23.1-.32Z"/><path class="cls-11" d="M29.46,25.91C31.52,38.07,22.89,29,22.89,29s2.35-1.42,2.56-2.62Z"/><path class="cls-5" d="M29.24,26a11.43,11.43,0,0,1,.13,4.8c-.18.67-.59,1.25-1.32,1.26A4.13,4.13,0,0,1,26,31.26a14.12,14.12,0,0,1-1.91-1.45c-.34-.31-.68-.62-1-.95l0,.35a10.24,10.24,0,0,0,1.27-.92,3.55,3.55,0,0,0,1.39-1.83l-.22.16,4-.48c.28,0,.29-.49,0-.45l-4,.48c-.09,0-.2.07-.22.17A3.36,3.36,0,0,1,23.91,28a9.65,9.65,0,0,1-1.13.8.23.23,0,0,0-.05.36,15.9,15.9,0,0,0,2.94,2.43,4.74,4.74,0,0,0,2.3.87,1.78,1.78,0,0,0,1.72-1.24,5.75,5.75,0,0,0,.31-2,20.25,20.25,0,0,0-.32-3.38C29.63,25.57,29.19,25.69,29.24,26Z"/><path class="cls-12" d="M25.17,30.61s1.73-2.71,4.33-2.18c0,0,.22,3.2-1,3.44A1.54,1.54,0,0,1,28,32,4,4,0,0,1,25.17,30.61Z"/><path class="cls-7" d="M28.31,31.91l-.52-.74.61-.39.54.77S28.67,32,28.31,31.91Z"/><path class="cls-7" d="M14.07,10.09s-3.72-6.63-1.4-6.85c0,0,.87-.68,3,4.34"/><line class="cls-6" x1="72.53" y1="74.16" x2="69.58" y2="73.42"/><path class="cls-5" d="M72.41,73.89l-2.58-.65-.37-.09c-.13,0-.37,0-.29.16a.83.83,0,0,0,.53.38l2.58.65.37.09c.12,0,.36,0,.28-.16a.81.81,0,0,0-.52-.38Z"/><line class="cls-6" x1="72.55" y1="75.79" x2="69.6" y2="75.05"/><path class="cls-5" d="M72.31,75.54l-2.58-.65-.37-.09s-.14,0-.17,0,0,.13.07.15a1.29,1.29,0,0,0,.58.33l2.58.65.37.09s.14,0,.17,0,0-.12-.07-.15a1.29,1.29,0,0,0-.58-.33Z"/><path class="cls-1" d="M64.56,50.52l.47-.21c6.22-2.8,7.78-4.84,7.85-5.39-.28-.47-2.51-1.75-9.33-1.88-1.87,0-3.89,0-6,.15l.28.17A18.42,18.42,0,0,1,64.56,50.52Z"/><path class="cls-1" d="M15.61,58.71l.72.12-.06-.13Z"/><g class="cls-13"><polygon class="cls-14" points="8.09 58.7 10.44 66.7 9.39 66.87 8.09 58.7"/><polygon class="cls-14" points="6.89 51.24 8.22 50.85 12.77 66.33 10.44 66.7 8.09 58.7 6.89 51.24"/><polygon class="cls-15" points="8.22 50.85 10.46 50.19 15.1 65.95 12.77 66.33 8.22 50.85"/><polygon class="cls-16" points="10.46 50.19 12.71 49.53 17.42 65.58 15.1 65.95 10.46 50.19"/><polygon class="cls-17" points="12.71 49.53 14.95 48.87 19.75 65.21 17.42 65.58 12.71 49.53"/><polygon class="cls-18" points="14.95 48.87 17.2 48.21 22.08 64.83 19.75 65.21 14.95 48.87"/><polygon class="cls-19" points="17.2 48.21 19.44 47.55 24.41 64.46 22.08 64.83 17.2 48.21"/><polygon class="cls-20" points="19.44 47.55 21.68 46.89 26.74 64.09 24.41 64.46 19.44 47.55"/><polygon class="cls-21" points="21.68 46.89 23.93 46.23 29.07 63.72 26.74 64.09 21.68 46.89"/><polygon class="cls-22" points="23.93 46.23 26.18 45.57 31.4 63.34 29.07 63.72 23.93 46.23"/><polygon class="cls-23" points="26.18 45.57 28.42 44.91 33.73 62.97 31.4 63.34 26.18 45.57"/><polygon class="cls-24" points="28.42 44.91 30.66 44.25 36.06 62.59 33.73 62.97 28.42 44.91"/><polygon class="cls-25" points="30.66 44.25 32.91 43.59 38.39 62.22 36.06 62.59 30.66 44.25"/><polygon class="cls-26" points="32.91 43.59 35.15 42.93 40.72 61.85 38.39 62.22 32.91 43.59"/><polygon class="cls-27" points="35.15 42.93 37.4 42.27 43.05 61.48 40.72 61.85 35.15 42.93"/><polygon class="cls-28" points="37.4 42.27 39.64 41.61 45.37 61.1 43.05 61.48 37.4 42.27"/><polygon class="cls-29" points="39.64 41.61 40.13 41.47 41.95 41.17 47.7 60.73 45.37 61.1 39.64 41.61"/><polygon class="cls-30" points="44.28 40.8 50.03 60.36 47.7 60.73 41.95 41.17 44.28 40.8"/><polygon class="cls-31" points="46.61 40.43 52.36 59.98 50.03 60.36 44.28 40.8 46.61 40.43"/><polygon class="cls-32" points="48.94 40.05 54.69 59.61 52.36 59.98 46.61 40.43 48.94 40.05"/><polygon class="cls-33" points="51.27 39.68 57.02 59.24 54.69 59.61 48.94 40.05 51.27 39.68"/><polygon class="cls-34" points="53.6 39.31 59.35 58.86 57.02 59.24 51.27 39.68 53.6 39.31"/><polygon class="cls-35" points="55.93 38.93 61.6 58.24 59.63 58.82 59.35 58.86 53.6 39.31 55.93 38.93"/><polygon class="cls-36" points="58.26 38.56 63.85 57.58 61.6 58.24 55.93 38.93 58.26 38.56"/><polygon class="cls-37" points="60.59 38.19 66.09 56.92 63.85 57.58 58.26 38.56 60.59 38.19"/><polygon class="cls-38" points="62.92 37.81 68.34 56.26 66.09 56.92 60.59 38.19 62.92 37.81"/><polygon class="cls-39" points="65.25 37.44 70.58 55.6 68.34 56.26 62.92 37.81 65.25 37.44"/><polygon class="cls-40" points="67.58 37.07 72.83 54.94 70.58 55.6 65.25 37.44 67.58 37.07"/><polygon class="cls-41" points="69.91 36.69 75.07 54.28 72.83 54.94 67.58 37.07 69.91 36.69"/><polygon class="cls-2" points="72.23 36.32 77.32 53.62 75.07 54.28 69.91 36.69 72.23 36.32"/><polygon class="cls-42" points="74.56 35.95 77.23 45.02 78.55 53.26 77.32 53.62 72.23 36.32 74.56 35.95"/><polygon class="cls-42" points="77.23 45.02 74.56 35.95 75.75 35.76 77.23 45.02"/></g><path class="cls-2" d="M76.45,38.91S83,43.64,77.76,48C77.76,48,86.62,42.92,76.45,38.91Z"/><path class="cls-2" d="M80.7,39.69s5.09,3.66,1,7.06C81.71,46.75,88.57,42.79,80.7,39.69Z"/><path class="cls-2" d="M8.94,68.66s-7.95-1.53-5-7.73C3.92,60.93-2,69.3,8.94,68.66Z"/><path class="cls-2" d="M5.33,70s-6.15-1.18-3.88-6C1.45,64-3.12,70.51,5.33,70Z"/></g></g></svg>